<svg width="246" height="46" viewBox="0 0 246 46" fill="none" xmlns="http://www.w3.org/2000/svg">
<path d="M27.5527 0.0972409H31.6782C33.692 0.226896 35.5582 0.594247 37.2772 1.1993C39.1926 1.76113 41.0344 2.62549 42.8025 3.79237C43.2445 4.09489 43.4655 4.20294 43.4655 4.1165C43.5146 4.1165 44.4232 3.46824 46.1913 2.1717C48.1558 0.788726 49.1135 0.118849 49.0644 0.162066C49.4574 -0.0540221 50.1695 -0.0540221 51.2009 0.162066C51.4465 0.291721 51.5938 0.507811 51.6429 0.810334C51.692 1.24251 51.7166 4.05168 51.7166 9.23782C51.7166 14.9857 51.6429 17.9463 51.4956 18.1191L51.2009 18.2487C51.0045 18.3352 50.2186 18.3784 48.8434 18.3784C47.4683 18.3784 46.6824 18.3352 46.486 18.2487C46.1422 18.0326 45.9457 17.7085 45.8966 17.2763C45.5037 14.0782 44.2022 11.3123 41.9921 8.97851C41.0098 8.02772 40.0767 7.2714 39.1926 6.70957C37.6209 5.71556 35.9757 5.1105 34.2567 4.89442C32.0957 4.50546 29.4435 4.6135 26.3003 5.21856C23.1571 5.78039 20.6277 6.7744 18.7123 8.20059C17.5826 8.97851 16.7478 9.75643 16.2075 10.5344C14.1447 13.1706 13.1133 17.3195 13.1133 22.9811C13.1133 28.902 14.2675 33.1805 16.5758 35.8168C16.8214 36.1193 17.1161 36.4219 17.4599 36.7244C18.0983 37.2862 18.5159 37.6319 18.7123 37.7616C20.6277 39.1878 23.1571 40.1818 26.3003 40.7436C29.0507 41.2622 31.4818 41.4135 33.5937 41.1974C38.063 40.8084 41.5255 39.0581 43.9812 35.9464C45.4546 34.1313 46.265 32.1217 46.4123 29.9176C46.4123 29.1828 46.5843 28.729 46.928 28.5562C47.1244 28.4697 47.8367 28.4265 49.0644 28.4265C50.2922 28.4265 51.0045 28.4697 51.2009 28.5562C51.5446 28.7723 51.7166 29.2693 51.7166 30.0472C51.5692 32.1217 51.0289 34.0016 50.0958 35.6871C47.7874 39.9225 43.8339 42.9046 38.2349 44.6332C36.1721 45.2815 33.9866 45.6921 31.6782 45.8649C30.1066 45.9946 28.1175 45.9729 25.7109 45.8001C19.5226 45.195 14.3657 43.6392 10.2402 41.1326C6.31109 38.5827 3.51161 35.4062 1.84176 31.6031C1.10505 29.9607 0.54025 28.0159 0.147341 25.7686C-0.0491135 24.2128 -0.0491135 22.4408 0.147341 20.4528C0.147341 20.3232 0.147341 20.2152 0.147341 20.1287C0.638476 16.6712 1.86632 13.5596 3.83086 10.7937C6.82678 6.51509 11.3698 3.46824 17.4599 1.65309C20.6031 0.788726 23.9675 0.270113 27.5527 0.0972409ZM59.3823 3.07927V0.745508H75.6634C86.8122 0.745508 92.6076 0.767117 93.0496 0.810334C97.1261 1.06964 100.761 1.91239 103.953 3.33858C110.239 6.14775 114.218 10.7288 115.887 17.0819C115.986 17.5573 116.084 18.0326 116.182 18.508C117.017 22.7001 116.821 26.6546 115.593 30.3713C113.727 35.9896 109.945 40.0522 104.248 42.5588C101.546 43.8121 98.2802 44.6549 94.4493 45.087C93.9092 45.1302 87.8927 45.1735 76.4001 45.2167H59.3823V42.8829V40.5491H63.3605H67.3387V22.9811V5.41304H63.3605H59.3823V3.07927ZM89.5871 5.47786C89.2434 5.43465 87.3525 5.41304 83.9145 5.41304H79.1996V22.9811V40.5491H84.5775C88.4576 40.506 90.5694 40.4627 90.9132 40.4195C95.1861 39.944 98.4276 38.626 100.638 36.4651C102.504 34.6067 103.584 31.7544 103.879 27.9079C104.076 24.4505 104.076 21.2308 103.879 18.2487C103.83 18.0326 103.805 17.8598 103.805 17.7301C103.314 12.8898 101.374 9.51874 97.9855 7.61715C97.5435 7.40105 97.077 7.18496 96.5858 6.96888C94.7196 6.19096 92.3866 5.69395 89.5871 5.47786ZM124.347 3.07927V0.745508H139.597C149.912 0.788725 155.928 0.89677 157.647 1.06964C162.657 1.67469 166.684 3.03605 169.729 5.15373C172.036 6.88244 173.51 9.00012 174.149 11.5068C174.345 12.4575 174.345 13.5596 174.149 14.8129C173.756 16.1526 173.141 17.3412 172.308 18.3784C171.226 19.7181 169.851 20.8202 168.182 21.6846C167.298 22.1167 166.119 22.6138 164.646 23.1756L163.909 23.4349L164.498 23.6942C166.168 24.6449 167.42 25.6606 168.256 26.741C168.942 27.519 169.409 28.2752 169.655 29.01C169.999 29.6582 170.342 31.2789 170.687 33.872C171.079 36.5082 171.373 38.0641 171.571 38.5395C172.356 40.7868 173.977 41.9105 176.433 41.9105C176.972 41.9105 177.366 41.8673 177.612 41.7809C178.593 41.0461 179.182 40.0737 179.38 38.8637C179.38 38.3882 179.624 37.9992 180.117 37.6968C180.46 37.5671 181.54 37.5455 183.358 37.6319C183.701 37.6319 183.897 37.6536 183.947 37.6968C184.291 37.8696 184.512 38.1289 184.611 38.4747C184.806 38.8636 184.758 39.5336 184.463 40.4843C183.676 43.0342 181.933 44.7197 179.233 45.5408C178.74 45.6705 178.25 45.7785 177.759 45.8649C176.236 46.0811 173.657 46.0378 170.024 45.7353C163.295 45.1302 159.39 42.9694 158.31 39.2526C158.211 38.9933 158.138 38.7123 158.089 38.4099C158.039 38.1074 158.016 36.746 158.016 34.3258C158.016 31.6895 157.892 30.004 157.647 29.2693C156.959 27.3677 155.682 26.0496 153.816 25.3149C153.128 25.0555 151.482 24.9259 148.88 24.9259H148.07H144.165V32.7051V40.5491H148.144H152.122V42.8829V45.2167H151.164C151.213 45.2167 148.904 45.1735 144.238 45.087C140.26 45.0438 136.258 45.0438 132.23 45.087C127.564 45.1735 125.256 45.2167 125.305 45.2167H124.347V42.8829V40.5491H128.326H132.304V22.9811V5.41304H128.326H124.347V3.07927ZM153.301 5.47786C152.907 5.43465 151.188 5.41304 148.144 5.41304H144.165V13.1922V20.9715H148.88C152.417 20.9283 154.724 20.7986 155.805 20.5825C156.984 20.3664 158.113 19.9559 159.194 19.3508C160.127 18.7025 160.741 17.6869 161.036 16.3039C161.281 14.8346 161.306 13.0626 161.11 10.9881C160.962 9.00012 160.249 7.61715 158.973 6.83923C158.727 6.70957 158.458 6.57992 158.163 6.45027C156.787 5.93165 155.166 5.60752 153.301 5.47786ZM214.69 0.0324154H219.11H219.184C219.822 0.248504 220.19 0.486201 220.289 0.745508L237.97 40.225L238.117 40.5491H242.095H246V42.8829V45.2167H245.116L238.78 45.087C235.194 45.0438 231.315 45.0438 227.14 45.087L219.994 45.2167H219.037V42.8829V40.5491H222.204L225.372 40.4843L224.046 37.5671L222.72 34.6499H213.659C207.618 34.6499 204.597 34.6716 204.597 34.7147L203.271 37.6319L202.019 40.4843C202.019 40.5275 203.074 40.5491 205.187 40.5491H208.281V42.8829V45.2167H207.544L202.092 45.087C198.9 45.0438 195.953 45.0438 193.252 45.087L188.611 45.2167H187.948V42.8829V40.5491H191.852H195.831L195.978 40.225L213.659 0.745508C213.806 0.529419 214.149 0.291721 214.69 0.0324154ZM217.195 22.2032L213.732 14.424H213.659L206.734 29.9824H213.732L220.657 29.9176L217.195 22.2032Z" fill="#260041"/>
</svg>
