<svg width="38" height="38" viewBox="0 0 38 38" fill="none" xmlns="http://www.w3.org/2000/svg">
<path d="M13.6671 5.13333H9.82708C7.43753 5.13333 6.24186 5.13333 5.32917 5.59837C4.52634 6.00743 3.8741 6.65968 3.46504 7.4625C3 8.37519 3 9.57086 3 11.9604V28.1738C3 30.5633 3 31.7575 3.46504 32.6702C3.8741 33.473 4.52634 34.1264 5.32917 34.5354C6.24096 35 7.43519 35 9.82007 35H26.0466C28.4315 35 29.624 35 30.5358 34.5354C31.3386 34.1264 31.993 33.4724 32.4021 32.6695C32.8667 31.7577 32.8667 30.5648 32.8667 28.1799V24.3333M35 13.6667V3M35 3H24.3333M35 3L20.0667 17.9333" stroke="#260041" stroke-width="5" stroke-linecap="round" stroke-linejoin="round"/>
</svg>
